<mxfile host="app.diagrams.net" modified="2021-08-20T02:58:47.545Z" agent="5.0 (Windows NT 10.0; Win64; x64) AppleWebKit/537.36 (KHTML, like Gecko) Chrome/92.0.4515.159 Safari/537.36" etag="WVCaw8CNvYBW_t2DgZrq" version="14.9.6" type="github" pages="2">
  <diagram id="KL9cf1m1Lb3n79l9RlhW" name="缺陷流转图">
    <mxGraphModel dx="1038" dy="491" grid="1" gridSize="10" guides="1" tooltips="1" connect="1" arrows="1" fold="1" page="1" pageScale="1" pageWidth="827" pageHeight="1169" math="0" shadow="0">
      <root>
        <mxCell id="0" />
        <mxCell id="1" parent="0" />
        <mxCell id="rE75Y2Q2DmnQ8dYPYeXb-1" value="缺陷流转图" style="swimlane;childLayout=stackLayout;resizeParent=1;resizeParentMax=0;horizontal=1;startSize=20;horizontalStack=0;" parent="1" vertex="1">
          <mxGeometry x="50" y="205" width="710" height="380" as="geometry" />
        </mxCell>
        <mxCell id="rE75Y2Q2DmnQ8dYPYeXb-2" value="测试" style="swimlane;startSize=20;horizontal=0;" parent="rE75Y2Q2DmnQ8dYPYeXb-1" vertex="1">
          <mxGeometry y="20" width="710" height="120" as="geometry" />
        </mxCell>
        <mxCell id="rE75Y2Q2DmnQ8dYPYeXb-6" value="创建缺陷" style="rounded=1;whiteSpace=wrap;html=1;" parent="rE75Y2Q2DmnQ8dYPYeXb-2" vertex="1">
          <mxGeometry x="90" y="35" width="60" height="35" as="geometry" />
        </mxCell>
        <mxCell id="rE75Y2Q2DmnQ8dYPYeXb-7" value="" style="ellipse;html=1;shape=endState;fillColor=#000000;strokeColor=#ff0000;" parent="rE75Y2Q2DmnQ8dYPYeXb-2" vertex="1">
          <mxGeometry x="515" y="81" width="30" height="30" as="geometry" />
        </mxCell>
        <mxCell id="rE75Y2Q2DmnQ8dYPYeXb-11" value="关闭缺陷" style="rounded=1;whiteSpace=wrap;html=1;" parent="rE75Y2Q2DmnQ8dYPYeXb-2" vertex="1">
          <mxGeometry x="460" y="33.5" width="60" height="36.5" as="geometry" />
        </mxCell>
        <mxCell id="rE75Y2Q2DmnQ8dYPYeXb-23" value="" style="edgeStyle=orthogonalEdgeStyle;rounded=0;orthogonalLoop=1;jettySize=auto;html=1;fontSize=14;" parent="rE75Y2Q2DmnQ8dYPYeXb-2" source="rE75Y2Q2DmnQ8dYPYeXb-8" target="rE75Y2Q2DmnQ8dYPYeXb-22" edge="1">
          <mxGeometry relative="1" as="geometry" />
        </mxCell>
        <mxCell id="rE75Y2Q2DmnQ8dYPYeXb-8" value="确认缺陷" style="rounded=1;whiteSpace=wrap;html=1;" parent="rE75Y2Q2DmnQ8dYPYeXb-2" vertex="1">
          <mxGeometry x="205" y="35" width="55" height="35" as="geometry" />
        </mxCell>
        <mxCell id="rE75Y2Q2DmnQ8dYPYeXb-19" value="否" style="text;strokeColor=none;fillColor=none;html=1;fontSize=14;fontStyle=0;verticalAlign=middle;align=center;" parent="rE75Y2Q2DmnQ8dYPYeXb-2" vertex="1">
          <mxGeometry x="200" y="90" width="50" height="30" as="geometry" />
        </mxCell>
        <mxCell id="rE75Y2Q2DmnQ8dYPYeXb-27" value="" style="edgeStyle=orthogonalEdgeStyle;rounded=0;orthogonalLoop=1;jettySize=auto;html=1;fontSize=14;" parent="rE75Y2Q2DmnQ8dYPYeXb-2" source="rE75Y2Q2DmnQ8dYPYeXb-22" target="rE75Y2Q2DmnQ8dYPYeXb-11" edge="1">
          <mxGeometry relative="1" as="geometry" />
        </mxCell>
        <mxCell id="rE75Y2Q2DmnQ8dYPYeXb-22" value="是否缺陷" style="html=1;whiteSpace=wrap;aspect=fixed;shape=isoRectangle;" parent="rE75Y2Q2DmnQ8dYPYeXb-2" vertex="1">
          <mxGeometry x="313" y="31.5" width="70" height="42" as="geometry" />
        </mxCell>
        <mxCell id="rE75Y2Q2DmnQ8dYPYeXb-25" value="是" style="text;strokeColor=none;fillColor=none;html=1;fontSize=14;fontStyle=0;verticalAlign=middle;align=center;" parent="rE75Y2Q2DmnQ8dYPYeXb-2" vertex="1">
          <mxGeometry x="340" y="90" width="50" height="30" as="geometry" />
        </mxCell>
        <mxCell id="rE75Y2Q2DmnQ8dYPYeXb-28" value="否" style="text;strokeColor=none;fillColor=none;html=1;fontSize=14;fontStyle=0;verticalAlign=middle;align=center;" parent="rE75Y2Q2DmnQ8dYPYeXb-2" vertex="1">
          <mxGeometry x="400" y="25" width="50" height="30" as="geometry" />
        </mxCell>
        <mxCell id="rE75Y2Q2DmnQ8dYPYeXb-37" value="" style="edgeStyle=orthogonalEdgeStyle;rounded=0;orthogonalLoop=1;jettySize=auto;html=1;fontSize=14;" parent="rE75Y2Q2DmnQ8dYPYeXb-2" source="rE75Y2Q2DmnQ8dYPYeXb-34" target="rE75Y2Q2DmnQ8dYPYeXb-36" edge="1">
          <mxGeometry relative="1" as="geometry" />
        </mxCell>
        <mxCell id="i3drp-K6jT1cGg4TOjky-1" style="edgeStyle=orthogonalEdgeStyle;rounded=0;orthogonalLoop=1;jettySize=auto;html=1;entryX=0.5;entryY=0;entryDx=0;entryDy=0;fontSize=14;exitX=1;exitY=0.5;exitDx=0;exitDy=0;" parent="rE75Y2Q2DmnQ8dYPYeXb-2" source="rE75Y2Q2DmnQ8dYPYeXb-11" target="rE75Y2Q2DmnQ8dYPYeXb-7" edge="1">
          <mxGeometry relative="1" as="geometry">
            <Array as="points">
              <mxPoint x="520" y="60" />
              <mxPoint x="530" y="60" />
            </Array>
          </mxGeometry>
        </mxCell>
        <mxCell id="rE75Y2Q2DmnQ8dYPYeXb-34" value="测试缺陷" style="rounded=1;whiteSpace=wrap;html=1;" parent="rE75Y2Q2DmnQ8dYPYeXb-2" vertex="1">
          <mxGeometry x="545" y="45" width="60" height="30" as="geometry" />
        </mxCell>
        <mxCell id="rE75Y2Q2DmnQ8dYPYeXb-38" style="edgeStyle=orthogonalEdgeStyle;rounded=0;orthogonalLoop=1;jettySize=auto;html=1;entryX=0.5;entryY=0;entryDx=0;entryDy=0;fontSize=14;" parent="rE75Y2Q2DmnQ8dYPYeXb-2" source="rE75Y2Q2DmnQ8dYPYeXb-36" target="rE75Y2Q2DmnQ8dYPYeXb-11" edge="1">
          <mxGeometry relative="1" as="geometry">
            <Array as="points">
              <mxPoint x="665" y="14" />
              <mxPoint x="490" y="14" />
            </Array>
          </mxGeometry>
        </mxCell>
        <mxCell id="rE75Y2Q2DmnQ8dYPYeXb-36" value="是否修复" style="html=1;whiteSpace=wrap;aspect=fixed;shape=isoRectangle;" parent="rE75Y2Q2DmnQ8dYPYeXb-2" vertex="1">
          <mxGeometry x="630" y="39" width="70" height="42" as="geometry" />
        </mxCell>
        <mxCell id="rE75Y2Q2DmnQ8dYPYeXb-40" value="是" style="text;strokeColor=none;fillColor=none;html=1;fontSize=14;fontStyle=0;verticalAlign=middle;align=center;" parent="rE75Y2Q2DmnQ8dYPYeXb-2" vertex="1">
          <mxGeometry x="550" y="9" width="50" height="30" as="geometry" />
        </mxCell>
        <mxCell id="i3drp-K6jT1cGg4TOjky-2" value="" style="ellipse;html=1;shape=startState;fillColor=#000000;strokeColor=#ff0000;fontSize=14;" parent="rE75Y2Q2DmnQ8dYPYeXb-2" vertex="1">
          <mxGeometry x="30" y="36.75" width="30" height="30" as="geometry" />
        </mxCell>
        <mxCell id="i3drp-K6jT1cGg4TOjky-3" value="" style="edgeStyle=orthogonalEdgeStyle;html=1;verticalAlign=bottom;endArrow=open;endSize=8;strokeColor=#ff0000;fontSize=14;entryX=0;entryY=0.5;entryDx=0;entryDy=0;" parent="rE75Y2Q2DmnQ8dYPYeXb-2" source="i3drp-K6jT1cGg4TOjky-2" target="rE75Y2Q2DmnQ8dYPYeXb-6" edge="1">
          <mxGeometry relative="1" as="geometry">
            <mxPoint x="45" y="115" as="targetPoint" />
          </mxGeometry>
        </mxCell>
        <mxCell id="rE75Y2Q2DmnQ8dYPYeXb-3" value="开发" style="swimlane;startSize=20;horizontal=0;" parent="rE75Y2Q2DmnQ8dYPYeXb-1" vertex="1">
          <mxGeometry y="140" width="710" height="120" as="geometry" />
        </mxCell>
        <mxCell id="rE75Y2Q2DmnQ8dYPYeXb-16" style="edgeStyle=orthogonalEdgeStyle;rounded=0;orthogonalLoop=1;jettySize=auto;html=1;" parent="rE75Y2Q2DmnQ8dYPYeXb-3" source="rE75Y2Q2DmnQ8dYPYeXb-13" target="rE75Y2Q2DmnQ8dYPYeXb-14" edge="1">
          <mxGeometry relative="1" as="geometry" />
        </mxCell>
        <mxCell id="rE75Y2Q2DmnQ8dYPYeXb-13" value="确认缺陷" style="rounded=1;whiteSpace=wrap;html=1;" parent="rE75Y2Q2DmnQ8dYPYeXb-3" vertex="1">
          <mxGeometry x="90" y="37" width="60" height="36" as="geometry" />
        </mxCell>
        <mxCell id="rE75Y2Q2DmnQ8dYPYeXb-10" value="修复缺陷" style="rounded=1;whiteSpace=wrap;html=1;" parent="rE75Y2Q2DmnQ8dYPYeXb-3" vertex="1">
          <mxGeometry x="545" y="37" width="60" height="36" as="geometry" />
        </mxCell>
        <mxCell id="rE75Y2Q2DmnQ8dYPYeXb-14" value="是否缺陷" style="html=1;whiteSpace=wrap;aspect=fixed;shape=isoRectangle;" parent="rE75Y2Q2DmnQ8dYPYeXb-3" vertex="1">
          <mxGeometry x="197.5" y="34" width="70" height="42" as="geometry" />
        </mxCell>
        <mxCell id="rE75Y2Q2DmnQ8dYPYeXb-17" style="edgeStyle=orthogonalEdgeStyle;rounded=0;orthogonalLoop=1;jettySize=auto;html=1;entryX=0;entryY=0.5;entryDx=0;entryDy=0;labelBorderColor=none;" parent="rE75Y2Q2DmnQ8dYPYeXb-3" source="rE75Y2Q2DmnQ8dYPYeXb-14" target="rE75Y2Q2DmnQ8dYPYeXb-10" edge="1">
          <mxGeometry relative="1" as="geometry" />
        </mxCell>
        <mxCell id="rE75Y2Q2DmnQ8dYPYeXb-20" value="是" style="text;strokeColor=none;fillColor=none;html=1;fontSize=14;fontStyle=0;verticalAlign=middle;align=center;" parent="rE75Y2Q2DmnQ8dYPYeXb-3" vertex="1">
          <mxGeometry x="259" y="25" width="50" height="30" as="geometry" />
        </mxCell>
        <mxCell id="rE75Y2Q2DmnQ8dYPYeXb-44" value="否" style="text;strokeColor=none;fillColor=none;html=1;fontSize=14;fontStyle=0;verticalAlign=middle;align=center;" parent="rE75Y2Q2DmnQ8dYPYeXb-3" vertex="1">
          <mxGeometry x="630" y="5" width="50" height="20" as="geometry" />
        </mxCell>
        <mxCell id="rE75Y2Q2DmnQ8dYPYeXb-45" value="否" style="text;strokeColor=none;fillColor=none;html=1;fontSize=14;fontStyle=0;verticalAlign=middle;align=center;" parent="rE75Y2Q2DmnQ8dYPYeXb-3" vertex="1">
          <mxGeometry x="450" y="65" width="50" height="30" as="geometry" />
        </mxCell>
        <mxCell id="rE75Y2Q2DmnQ8dYPYeXb-15" style="edgeStyle=orthogonalEdgeStyle;rounded=0;orthogonalLoop=1;jettySize=auto;html=1;entryX=0.5;entryY=0;entryDx=0;entryDy=0;" parent="rE75Y2Q2DmnQ8dYPYeXb-1" source="rE75Y2Q2DmnQ8dYPYeXb-6" target="rE75Y2Q2DmnQ8dYPYeXb-13" edge="1">
          <mxGeometry relative="1" as="geometry" />
        </mxCell>
        <mxCell id="rE75Y2Q2DmnQ8dYPYeXb-21" style="edgeStyle=orthogonalEdgeStyle;rounded=0;orthogonalLoop=1;jettySize=auto;html=1;entryX=0.5;entryY=1;entryDx=0;entryDy=0;fontSize=14;" parent="rE75Y2Q2DmnQ8dYPYeXb-1" source="rE75Y2Q2DmnQ8dYPYeXb-14" target="rE75Y2Q2DmnQ8dYPYeXb-8" edge="1">
          <mxGeometry relative="1" as="geometry" />
        </mxCell>
        <mxCell id="rE75Y2Q2DmnQ8dYPYeXb-24" value="" style="edgeStyle=orthogonalEdgeStyle;rounded=0;orthogonalLoop=1;jettySize=auto;html=1;fontSize=14;entryX=0.409;entryY=0.012;entryDx=0;entryDy=0;entryPerimeter=0;" parent="rE75Y2Q2DmnQ8dYPYeXb-1" source="rE75Y2Q2DmnQ8dYPYeXb-22" target="rE75Y2Q2DmnQ8dYPYeXb-9" edge="1">
          <mxGeometry relative="1" as="geometry">
            <Array as="points">
              <mxPoint x="349" y="215" />
            </Array>
          </mxGeometry>
        </mxCell>
        <mxCell id="rE75Y2Q2DmnQ8dYPYeXb-31" style="edgeStyle=orthogonalEdgeStyle;rounded=0;orthogonalLoop=1;jettySize=auto;html=1;fontSize=14;entryX=0.5;entryY=1;entryDx=0;entryDy=0;" parent="rE75Y2Q2DmnQ8dYPYeXb-1" source="rE75Y2Q2DmnQ8dYPYeXb-29" target="rE75Y2Q2DmnQ8dYPYeXb-11" edge="1">
          <mxGeometry relative="1" as="geometry">
            <mxPoint x="510" y="95" as="targetPoint" />
          </mxGeometry>
        </mxCell>
        <mxCell id="rE75Y2Q2DmnQ8dYPYeXb-33" style="edgeStyle=orthogonalEdgeStyle;rounded=0;orthogonalLoop=1;jettySize=auto;html=1;fontSize=14;entryX=0.5;entryY=1;entryDx=0;entryDy=0;" parent="rE75Y2Q2DmnQ8dYPYeXb-1" source="rE75Y2Q2DmnQ8dYPYeXb-29" target="rE75Y2Q2DmnQ8dYPYeXb-10" edge="1">
          <mxGeometry relative="1" as="geometry">
            <mxPoint x="590" y="224.9999999999999" as="targetPoint" />
          </mxGeometry>
        </mxCell>
        <mxCell id="rE75Y2Q2DmnQ8dYPYeXb-35" value="" style="edgeStyle=orthogonalEdgeStyle;rounded=0;orthogonalLoop=1;jettySize=auto;html=1;fontSize=14;" parent="rE75Y2Q2DmnQ8dYPYeXb-1" source="rE75Y2Q2DmnQ8dYPYeXb-10" target="rE75Y2Q2DmnQ8dYPYeXb-34" edge="1">
          <mxGeometry relative="1" as="geometry" />
        </mxCell>
        <mxCell id="rE75Y2Q2DmnQ8dYPYeXb-4" value="产品" style="swimlane;startSize=20;horizontal=0;" parent="rE75Y2Q2DmnQ8dYPYeXb-1" vertex="1">
          <mxGeometry y="260" width="710" height="120" as="geometry" />
        </mxCell>
        <mxCell id="rE75Y2Q2DmnQ8dYPYeXb-32" value="" style="edgeStyle=orthogonalEdgeStyle;rounded=0;orthogonalLoop=1;jettySize=auto;html=1;fontSize=14;" parent="rE75Y2Q2DmnQ8dYPYeXb-4" source="rE75Y2Q2DmnQ8dYPYeXb-9" target="rE75Y2Q2DmnQ8dYPYeXb-29" edge="1">
          <mxGeometry relative="1" as="geometry" />
        </mxCell>
        <mxCell id="rE75Y2Q2DmnQ8dYPYeXb-9" value="确认缺陷" style="rounded=1;whiteSpace=wrap;html=1;" parent="rE75Y2Q2DmnQ8dYPYeXb-4" vertex="1">
          <mxGeometry x="320" y="40.5" width="70" height="33" as="geometry" />
        </mxCell>
        <mxCell id="rE75Y2Q2DmnQ8dYPYeXb-29" value="是否缺陷" style="html=1;whiteSpace=wrap;aspect=fixed;shape=isoRectangle;" parent="rE75Y2Q2DmnQ8dYPYeXb-4" vertex="1">
          <mxGeometry x="455" y="36" width="70" height="42" as="geometry" />
        </mxCell>
        <mxCell id="rE75Y2Q2DmnQ8dYPYeXb-46" value="是" style="text;strokeColor=none;fillColor=none;html=1;fontSize=14;fontStyle=0;verticalAlign=middle;align=center;" parent="rE75Y2Q2DmnQ8dYPYeXb-4" vertex="1">
          <mxGeometry x="560" y="7" width="50" height="30" as="geometry" />
        </mxCell>
        <mxCell id="rE75Y2Q2DmnQ8dYPYeXb-43" style="edgeStyle=orthogonalEdgeStyle;rounded=0;orthogonalLoop=1;jettySize=auto;html=1;fontSize=14;" parent="rE75Y2Q2DmnQ8dYPYeXb-1" source="rE75Y2Q2DmnQ8dYPYeXb-36" target="rE75Y2Q2DmnQ8dYPYeXb-10" edge="1">
          <mxGeometry relative="1" as="geometry">
            <Array as="points">
              <mxPoint x="665" y="194" />
            </Array>
          </mxGeometry>
        </mxCell>
      </root>
    </mxGraphModel>
  </diagram>
  <diagram id="Ea9x9ZElGnxCBEmHAN61" name="缺陷状态流转图">
    <mxGraphModel dx="1038" dy="1660" grid="1" gridSize="10" guides="1" tooltips="1" connect="1" arrows="1" fold="1" page="1" pageScale="1" pageWidth="827" pageHeight="1169" math="0" shadow="0">
      <root>
        <mxCell id="VFpANJRDRbKtAx9cCadN-0" />
        <mxCell id="VFpANJRDRbKtAx9cCadN-1" parent="VFpANJRDRbKtAx9cCadN-0" />
        <mxCell id="vzMmAT2kN59FjllgXY1Q-8" style="edgeStyle=orthogonalEdgeStyle;rounded=0;orthogonalLoop=1;jettySize=auto;html=1;fontSize=12;" parent="VFpANJRDRbKtAx9cCadN-1" source="VFpANJRDRbKtAx9cCadN-4" target="vzMmAT2kN59FjllgXY1Q-4" edge="1">
          <mxGeometry relative="1" as="geometry" />
        </mxCell>
        <mxCell id="VFpANJRDRbKtAx9cCadN-4" value="无效" style="rounded=1;whiteSpace=wrap;html=1;fontSize=14;" parent="VFpANJRDRbKtAx9cCadN-1" vertex="1">
          <mxGeometry x="510" y="410" width="80" height="40" as="geometry" />
        </mxCell>
        <mxCell id="8hg5jXTCX_rGLq8qiBGT-27" value="" style="edgeStyle=orthogonalEdgeStyle;rounded=0;orthogonalLoop=1;jettySize=auto;html=1;fontSize=12;" parent="VFpANJRDRbKtAx9cCadN-1" source="VFpANJRDRbKtAx9cCadN-5" target="8hg5jXTCX_rGLq8qiBGT-26" edge="1">
          <mxGeometry relative="1" as="geometry" />
        </mxCell>
        <mxCell id="VFpANJRDRbKtAx9cCadN-5" value="已驳回" style="rounded=1;whiteSpace=wrap;html=1;fontSize=14;" parent="VFpANJRDRbKtAx9cCadN-1" vertex="1">
          <mxGeometry x="510" y="240" width="80" height="40" as="geometry" />
        </mxCell>
        <mxCell id="vzMmAT2kN59FjllgXY1Q-7" style="edgeStyle=orthogonalEdgeStyle;rounded=0;orthogonalLoop=1;jettySize=auto;html=1;fontSize=12;" parent="VFpANJRDRbKtAx9cCadN-1" source="VFpANJRDRbKtAx9cCadN-6" target="vzMmAT2kN59FjllgXY1Q-4" edge="1">
          <mxGeometry relative="1" as="geometry" />
        </mxCell>
        <mxCell id="VFpANJRDRbKtAx9cCadN-6" value="已关闭" style="rounded=1;whiteSpace=wrap;html=1;fontSize=14;" parent="VFpANJRDRbKtAx9cCadN-1" vertex="1">
          <mxGeometry x="340" y="410" width="80" height="40" as="geometry" />
        </mxCell>
        <mxCell id="8hg5jXTCX_rGLq8qiBGT-19" value="" style="edgeStyle=orthogonalEdgeStyle;rounded=0;orthogonalLoop=1;jettySize=auto;html=1;fontSize=12;" parent="VFpANJRDRbKtAx9cCadN-1" source="VFpANJRDRbKtAx9cCadN-7" target="8hg5jXTCX_rGLq8qiBGT-18" edge="1">
          <mxGeometry relative="1" as="geometry" />
        </mxCell>
        <mxCell id="VFpANJRDRbKtAx9cCadN-7" value="测试中" style="rounded=1;whiteSpace=wrap;html=1;fontSize=14;" parent="VFpANJRDRbKtAx9cCadN-1" vertex="1">
          <mxGeometry x="340" y="240" width="80" height="40" as="geometry" />
        </mxCell>
        <mxCell id="8hg5jXTCX_rGLq8qiBGT-15" value="" style="edgeStyle=orthogonalEdgeStyle;rounded=0;orthogonalLoop=1;jettySize=auto;html=1;fontSize=12;" parent="VFpANJRDRbKtAx9cCadN-1" source="VFpANJRDRbKtAx9cCadN-8" target="8hg5jXTCX_rGLq8qiBGT-14" edge="1">
          <mxGeometry relative="1" as="geometry" />
        </mxCell>
        <mxCell id="VFpANJRDRbKtAx9cCadN-8" value="修复中" style="rounded=1;whiteSpace=wrap;html=1;fontSize=14;" parent="VFpANJRDRbKtAx9cCadN-1" vertex="1">
          <mxGeometry x="340" y="80" width="80" height="40" as="geometry" />
        </mxCell>
        <mxCell id="8hg5jXTCX_rGLq8qiBGT-9" value="" style="ellipse;html=1;shape=startState;fillColor=#000000;strokeColor=#ff0000;fontSize=14;" parent="VFpANJRDRbKtAx9cCadN-1" vertex="1">
          <mxGeometry x="365" y="-10" width="30" height="30" as="geometry" />
        </mxCell>
        <mxCell id="8hg5jXTCX_rGLq8qiBGT-10" value="" style="edgeStyle=orthogonalEdgeStyle;html=1;verticalAlign=bottom;endArrow=open;endSize=8;strokeColor=#ff0000;fontSize=14;" parent="VFpANJRDRbKtAx9cCadN-1" source="8hg5jXTCX_rGLq8qiBGT-9" edge="1">
          <mxGeometry relative="1" as="geometry">
            <mxPoint x="380" y="80" as="targetPoint" />
          </mxGeometry>
        </mxCell>
        <mxCell id="8hg5jXTCX_rGLq8qiBGT-11" value="测试提交缺陷" style="text;strokeColor=none;fillColor=none;html=1;fontSize=12;fontStyle=0;verticalAlign=middle;align=center;" parent="VFpANJRDRbKtAx9cCadN-1" vertex="1">
          <mxGeometry x="375" y="30" width="90" height="30" as="geometry" />
        </mxCell>
        <mxCell id="8hg5jXTCX_rGLq8qiBGT-16" value="" style="edgeStyle=orthogonalEdgeStyle;rounded=0;orthogonalLoop=1;jettySize=auto;html=1;fontSize=12;" parent="VFpANJRDRbKtAx9cCadN-1" source="8hg5jXTCX_rGLq8qiBGT-14" target="VFpANJRDRbKtAx9cCadN-7" edge="1">
          <mxGeometry relative="1" as="geometry" />
        </mxCell>
        <mxCell id="8hg5jXTCX_rGLq8qiBGT-24" style="edgeStyle=orthogonalEdgeStyle;rounded=0;orthogonalLoop=1;jettySize=auto;html=1;entryX=0.5;entryY=0;entryDx=0;entryDy=0;fontSize=12;" parent="VFpANJRDRbKtAx9cCadN-1" source="8hg5jXTCX_rGLq8qiBGT-14" target="VFpANJRDRbKtAx9cCadN-5" edge="1">
          <mxGeometry relative="1" as="geometry" />
        </mxCell>
        <mxCell id="8hg5jXTCX_rGLq8qiBGT-14" value="开发处理" style="rhombus;whiteSpace=wrap;html=1;rounded=1;fontSize=14;" parent="VFpANJRDRbKtAx9cCadN-1" vertex="1">
          <mxGeometry x="340" y="140" width="80" height="60" as="geometry" />
        </mxCell>
        <mxCell id="8hg5jXTCX_rGLq8qiBGT-17" value="确认缺陷修复完成" style="text;strokeColor=none;fillColor=none;html=1;fontSize=12;fontStyle=0;verticalAlign=middle;align=center;" parent="VFpANJRDRbKtAx9cCadN-1" vertex="1">
          <mxGeometry x="386" y="204" width="90" height="30" as="geometry" />
        </mxCell>
        <mxCell id="8hg5jXTCX_rGLq8qiBGT-20" value="" style="edgeStyle=orthogonalEdgeStyle;rounded=0;orthogonalLoop=1;jettySize=auto;html=1;fontSize=12;" parent="VFpANJRDRbKtAx9cCadN-1" source="8hg5jXTCX_rGLq8qiBGT-18" target="VFpANJRDRbKtAx9cCadN-6" edge="1">
          <mxGeometry relative="1" as="geometry" />
        </mxCell>
        <mxCell id="8hg5jXTCX_rGLq8qiBGT-22" style="edgeStyle=orthogonalEdgeStyle;rounded=0;orthogonalLoop=1;jettySize=auto;html=1;entryX=0;entryY=0.5;entryDx=0;entryDy=0;fontSize=12;" parent="VFpANJRDRbKtAx9cCadN-1" source="8hg5jXTCX_rGLq8qiBGT-18" target="VFpANJRDRbKtAx9cCadN-8" edge="1">
          <mxGeometry relative="1" as="geometry">
            <Array as="points">
              <mxPoint x="280" y="340" />
              <mxPoint x="280" y="100" />
            </Array>
          </mxGeometry>
        </mxCell>
        <mxCell id="8hg5jXTCX_rGLq8qiBGT-18" value="测试缺陷" style="rhombus;whiteSpace=wrap;html=1;rounded=1;fontSize=14;" parent="VFpANJRDRbKtAx9cCadN-1" vertex="1">
          <mxGeometry x="340" y="310" width="80" height="60" as="geometry" />
        </mxCell>
        <mxCell id="8hg5jXTCX_rGLq8qiBGT-21" value="测试确认缺陷已修复" style="text;strokeColor=none;fillColor=none;html=1;fontSize=12;fontStyle=0;verticalAlign=middle;align=center;" parent="VFpANJRDRbKtAx9cCadN-1" vertex="1">
          <mxGeometry x="391" y="370" width="90" height="30" as="geometry" />
        </mxCell>
        <mxCell id="8hg5jXTCX_rGLq8qiBGT-23" value="测试确认缺陷未修复" style="text;strokeColor=none;fillColor=none;html=1;fontSize=12;fontStyle=0;verticalAlign=middle;align=center;" parent="VFpANJRDRbKtAx9cCadN-1" vertex="1">
          <mxGeometry x="180" y="180" width="90" height="30" as="geometry" />
        </mxCell>
        <mxCell id="8hg5jXTCX_rGLq8qiBGT-25" value="确认不是缺陷" style="text;strokeColor=none;fillColor=none;html=1;fontSize=12;fontStyle=0;verticalAlign=middle;align=center;" parent="VFpANJRDRbKtAx9cCadN-1" vertex="1">
          <mxGeometry x="440" y="140" width="90" height="30" as="geometry" />
        </mxCell>
        <mxCell id="8hg5jXTCX_rGLq8qiBGT-28" value="" style="edgeStyle=orthogonalEdgeStyle;rounded=0;orthogonalLoop=1;jettySize=auto;html=1;fontSize=12;" parent="VFpANJRDRbKtAx9cCadN-1" source="8hg5jXTCX_rGLq8qiBGT-26" target="VFpANJRDRbKtAx9cCadN-4" edge="1">
          <mxGeometry relative="1" as="geometry" />
        </mxCell>
        <mxCell id="vzMmAT2kN59FjllgXY1Q-9" style="edgeStyle=orthogonalEdgeStyle;rounded=0;orthogonalLoop=1;jettySize=auto;html=1;entryX=1;entryY=0.5;entryDx=0;entryDy=0;fontSize=12;" parent="VFpANJRDRbKtAx9cCadN-1" source="8hg5jXTCX_rGLq8qiBGT-26" target="VFpANJRDRbKtAx9cCadN-8" edge="1">
          <mxGeometry relative="1" as="geometry">
            <Array as="points">
              <mxPoint x="640" y="340" />
              <mxPoint x="640" y="100" />
            </Array>
          </mxGeometry>
        </mxCell>
        <mxCell id="8hg5jXTCX_rGLq8qiBGT-26" value="测试处理" style="rhombus;whiteSpace=wrap;html=1;rounded=1;fontSize=14;" parent="VFpANJRDRbKtAx9cCadN-1" vertex="1">
          <mxGeometry x="510" y="310" width="80" height="60" as="geometry" />
        </mxCell>
        <mxCell id="8hg5jXTCX_rGLq8qiBGT-29" value="测试确认不是缺陷" style="text;strokeColor=none;fillColor=none;html=1;fontSize=12;fontStyle=0;verticalAlign=middle;align=center;" parent="VFpANJRDRbKtAx9cCadN-1" vertex="1">
          <mxGeometry x="565" y="370" width="90" height="30" as="geometry" />
        </mxCell>
        <mxCell id="vzMmAT2kN59FjllgXY1Q-4" value="" style="ellipse;html=1;shape=endState;fillColor=#000000;strokeColor=#ff0000;fontSize=12;" parent="VFpANJRDRbKtAx9cCadN-1" vertex="1">
          <mxGeometry x="451" y="510" width="30" height="30" as="geometry" />
        </mxCell>
        <mxCell id="vzMmAT2kN59FjllgXY1Q-10" value="测试确认缺陷存在" style="text;strokeColor=none;fillColor=none;html=1;fontSize=12;fontStyle=0;verticalAlign=middle;align=center;" parent="VFpANJRDRbKtAx9cCadN-1" vertex="1">
          <mxGeometry x="650" y="190" width="90" height="30" as="geometry" />
        </mxCell>
      </root>
    </mxGraphModel>
  </diagram>
</mxfile>
